<?xml version="1.0" standalone="no"?><!DOCTYPE svg PUBLIC "-//W3C//DTD SVG 1.1//EN" "http://www.w3.org/Graphics/SVG/1.1/DTD/svg11.dtd"><svg t="1741081728457" class="icon" viewBox="0 0 1024 1024" version="1.1" xmlns="http://www.w3.org/2000/svg" p-id="6232" xmlns:xlink="http://www.w3.org/1999/xlink" width="48" height="48"><path d="M768 68c70.692 0 128 57.308 128 128v632c0 70.692-57.308 128-128 128H256c-70.692 0-128-57.308-128-128V196c0-70.692 57.308-128 128-128h512zM432 472h-88c-19.882 0-36 16.118-36 36s16.118 36 36 36h88c19.882 0 36-16.118 36-36s-16.118-36-36-36z m88-152H344c-19.882 0-36 16.118-36 36s16.118 36 36 36h176c19.882 0 36-16.118 36-36s-16.118-36-36-36z" p-id="6233"></path></svg>