<?xml version="1.0" standalone="no"?><!DOCTYPE svg PUBLIC "-//W3C//DTD SVG 1.1//EN" "http://www.w3.org/Graphics/SVG/1.1/DTD/svg11.dtd"><svg t="1737534687625" class="icon" viewBox="0 0 1024 1024" version="1.1" xmlns="http://www.w3.org/2000/svg" p-id="22883" xmlns:xlink="http://www.w3.org/1999/xlink" width="48" height="48"><path d="M512 511.561143m-448.731429 0a448.731429 448.731429 0 1 0 897.462858 0 448.731429 448.731429 0 1 0-897.462858 0Z" fill="#F1F1F1" p-id="22884"></path><path d="M511.341714 961.170286a447.561143 447.561143 0 0 0 324.900572-139.410286v-1.609143a82.358857 82.358857 0 0 0-41.106286-68.681143l-168.228571-68.827428a46.665143 46.665143 0 0 1-29.257143-43.227429v-8.630857a46.738286 46.738286 0 0 1 15.36-34.596571c41.618286-37.961143 68.608-106.130286 68.608-170.203429 0-107.446857-76.288-179.931429-170.276572-179.931429s-170.276571 72.484571-170.276571 179.931429c0 63.926857 26.989714 132.242286 68.534857 170.203429a46.518857 46.518857 0 0 1 15.36 34.596571 46.665143 46.665143 0 0 1-27.282286 42.496l-175.542857 80.457143a82.358857 82.358857 0 0 0-42.642286 61.074286 447.488 447.488 0 0 0 331.849143 146.358857z" fill="#D2D2D2" p-id="22885"></path></svg>