<?xml version="1.0" standalone="no"?><!DOCTYPE svg PUBLIC "-//W3C//DTD SVG 1.1//EN" "http://www.w3.org/Graphics/SVG/1.1/DTD/svg11.dtd"><svg t="1736159410602" class="icon" viewBox="0 0 1024 1024" version="1.1" xmlns="http://www.w3.org/2000/svg" p-id="6580" xmlns:xlink="http://www.w3.org/1999/xlink" width="16" height="16"><path d="M512 140c136.045 0 278.202 99.817 426.47 299.451 31.551 42.482 31.551 100.616 0 143.098l-4.446 5.96C787.359 784.168 646.684 882 512 882c-136.045 0-278.202-99.817-426.47-299.451-31.551-42.482-31.551-100.616 0-143.098l4.446-5.96C236.641 237.832 377.316 140 512 140z m0 239c-72.902 0-132 59.098-132 132s59.098 132 132 132 132-59.098 132-132-59.098-132-132-132z" p-id="6581"></path></svg>