<?xml version="1.0" standalone="no"?><!DOCTYPE svg PUBLIC "-//W3C//DTD SVG 1.1//EN" "http://www.w3.org/Graphics/SVG/1.1/DTD/svg11.dtd"><svg t="1729072499475" class="icon" viewBox="0 0 1024 1024" version="1.1" xmlns="http://www.w3.org/2000/svg" p-id="3763" xmlns:xlink="http://www.w3.org/1999/xlink" width="16" height="16"><path d="M512 22.4A489.28 489.28 0 0 0 164.48 856.64V960a40 40 0 0 0 12.16 29.44 41.6 41.6 0 0 0 29.44 12.16H512A489.6 489.6 0 0 0 512 22.4z m0 896H247.36v-79.04a41.6 41.6 0 0 0-13.12-30.4A402.56 402.56 0 0 1 105.6 512 406.4 406.4 0 1 1 512 918.4z" p-id="3764"></path><path d="M588.16 644.48a102.72 102.72 0 0 1-153.92-1.6 41.6 41.6 0 0 0-64 54.08 185.6 185.6 0 0 0 278.72 3.2 41.6 41.6 0 0 0-61.76-55.68z" p-id="3765"></path></svg>