<?xml version="1.0" standalone="no"?><!DOCTYPE svg PUBLIC "-//W3C//DTD SVG 1.1//EN" "http://www.w3.org/Graphics/SVG/1.1/DTD/svg11.dtd"><svg t="1738920753709" class="icon" viewBox="0 0 1024 1024" version="1.1" xmlns="http://www.w3.org/2000/svg" p-id="2360" xmlns:xlink="http://www.w3.org/1999/xlink" width="48" height="48"><path d="M512 64c247.424 0 448 200.576 448 448S759.424 960 512 960 64 759.424 64 512 264.576 64 512 64z m124.396 278.368L512 466.765 387.604 342.368c-12.492-12.49-32.744-12.49-45.236 0-12.49 12.492-12.49 32.744 0 45.236L466.765 512 342.368 636.396c-12.49 12.492-12.49 32.744 0 45.236 12.492 12.49 32.744 12.49 45.236 0L512 557.235l124.396 124.397c12.492 12.49 32.744 12.49 45.236 0 12.49-12.492 12.49-32.744 0-45.236L557.235 512l124.397-124.396c12.49-12.492 12.49-32.744 0-45.236-12.492-12.49-32.744-12.49-45.236 0z" p-id="2361"></path></svg>