<?xml version="1.0" standalone="no"?><!DOCTYPE svg PUBLIC "-//W3C//DTD SVG 1.1//EN" "http://www.w3.org/Graphics/SVG/1.1/DTD/svg11.dtd"><svg t="1754626805433" class="icon" viewBox="0 0 1024 1024" version="1.1" xmlns="http://www.w3.org/2000/svg" p-id="14352" xmlns:xlink="http://www.w3.org/1999/xlink" width="200" height="200"><path d="M271.104 346.368a32 32 0 0 1 43.84-11.264l125.504 74.24c36.032 21.312 55.232 27.968 71.552 27.968 16.32 0 35.456-6.656 71.488-27.968l125.568-74.24a32 32 0 0 1 32.576 55.104l-125.568 74.24c-37.12 21.952-69.184 36.864-104.064 36.864-34.88 0-66.944-14.912-104.128-36.864l-125.504-74.24a32 32 0 0 1-11.264-43.84z" fill="#333333" p-id="14353"></path><path d="M635.008 182.912a4878.976 4878.976 0 0 0-246.016 0c-68.096 1.664-115.712 2.944-152.448 9.344-35.328 6.144-57.344 16.576-75.392 34.752-18.24 18.304-28.48 40-34.432 74.304-6.208 35.84-7.296 82.048-8.704 148.416-0.896 41.6-0.896 82.944 0 124.544 1.408 66.368 2.496 112.64 8.704 148.416 5.952 34.304 16.192 56.064 34.432 74.304 18.048 18.176 40.064 28.608 75.392 34.752 36.736 6.4 84.352 7.68 152.448 9.344 82.304 2.112 163.712 2.112 246.016 0 68.096-1.664 115.712-2.944 152.448-9.344 35.328-6.144 57.344-16.576 75.392-34.752 18.24-18.24 28.48-40 34.432-74.304 6.272-35.84 7.296-82.048 8.704-148.416a2906.88 2906.88 0 0 0 0-124.544c-1.408-66.368-2.496-112.64-8.704-148.416-5.952-34.304-16.192-56-34.368-74.304-18.112-18.176-40.128-28.608-75.456-34.752-36.736-6.4-84.352-7.68-152.448-9.344z m-247.616-64a4943.104 4943.104 0 0 1 249.216 0h2.432c65.088 1.664 117.44 3.008 159.36 10.304 43.968 7.68 79.68 22.336 109.824 52.608 30.08 30.144 44.608 65.28 52.096 108.544 7.168 41.152 8.32 92.16 9.6 155.52l0.064 2.496a2971.52 2971.52 0 0 1 0 127.232v2.56c-1.408 63.232-2.496 114.304-9.6 155.52-7.552 43.136-22.144 78.336-52.16 108.48-30.144 30.272-65.92 44.928-109.76 52.608-41.984 7.296-94.336 8.64-159.36 10.24l-2.56 0.064a4945.344 4945.344 0 0 1-249.152 0h-2.432c-65.088-1.664-117.44-3.008-159.36-10.304-43.968-7.68-79.68-22.336-109.824-52.608-30.08-30.08-44.608-65.28-52.096-108.544-7.168-41.152-8.32-92.16-9.6-155.52l-0.064-2.496a2979.008 2979.008 0 0 1 0-127.232v-2.56c1.408-63.232 2.496-114.304 9.6-155.456 7.552-43.2 22.144-78.4 52.16-108.544 30.144-30.272 65.92-44.928 109.824-52.608 41.92-7.296 94.272-8.64 159.36-10.24l2.432-0.064z" p-id="14354"></path></svg>