<?xml version="1.0" standalone="no"?><!DOCTYPE svg PUBLIC "-//W3C//DTD SVG 1.1//EN" "http://www.w3.org/Graphics/SVG/1.1/DTD/svg11.dtd"><svg t="1729072450622" class="icon" viewBox="0 0 1024 1024" version="1.1" xmlns="http://www.w3.org/2000/svg" p-id="3261" xmlns:xlink="http://www.w3.org/1999/xlink" width="16" height="16"><path d="M682.56 338.56h-34.88a8.32 8.32 0 0 1-8-8.32v-96A217.28 217.28 0 0 0 422.4 17.28a96 96 0 0 0-96 96v252.48a54.08 54.08 0 0 1-4.16 20.16H280.96a273.6 273.6 0 0 0-273.6 274.24v72.96a273.6 273.6 0 0 0 273.6 273.6h157.44a40.96 40.96 0 0 0 18.56-4.8 344.32 344.32 0 0 0 54.72 4.8h170.88a334.08 334.08 0 0 0 0-668.16zM280.96 923.52a192 192 0 0 1-190.4-190.4v-72.96a192 192 0 0 1 151.04-186.24 333.76 333.76 0 0 0 28.8 430.4c6.4 6.72 13.44 13.12 20.48 19.2z m401.6 0H512a252.16 252.16 0 0 1-154.88-450.88 133.44 133.44 0 0 0 51.84-105.92V114.24a13.76 13.76 0 0 1 13.76-13.76 134.08 134.08 0 0 1 134.08 133.76v96a91.52 91.52 0 0 0 91.2 91.52h34.88a250.88 250.88 0 1 1 0 501.76z" p-id="3262"></path></svg>