<?xml version="1.0" standalone="no"?><!DOCTYPE svg PUBLIC "-//W3C//DTD SVG 1.1//EN" "http://www.w3.org/Graphics/SVG/1.1/DTD/svg11.dtd"><svg t="1740126697300" class="icon" viewBox="0 0 1024 1024" version="1.1" xmlns="http://www.w3.org/2000/svg" p-id="7092" id="mx_n_1740126697301" xmlns:xlink="http://www.w3.org/1999/xlink" width="48" height="48"><path d="M844.48 179.52a252.48 252.48 0 0 0-357.76 0l-104.64 104.64a41.6 41.6 0 0 0 58.56 58.88L544 238.4A169.92 169.92 0 1 1 785.6 480l-104.64 104.64a41.6 41.6 0 0 0 0 58.56 41.28 41.28 0 0 0 29.44 12.16 40 40 0 0 0 29.44-12.16l104.64-104.64a252.48 252.48 0 0 0 0-357.76zM583.36 680.96L480 785.6A169.92 169.92 0 1 1 238.4 544l104.64-104.64a41.6 41.6 0 0 0-58.88-58.56l-104.64 105.92a253.12 253.12 0 1 0 357.76 357.76l104.64-104.64a41.6 41.6 0 0 0-58.56-58.88z" p-id="7093"></path><path d="M456.64 615.04l160-160a41.6 41.6 0 1 0-58.56-58.88l-160 160a41.6 41.6 0 1 0 58.56 58.88z" p-id="7094"></path></svg>