<?xml version="1.0" standalone="no"?><!DOCTYPE svg PUBLIC "-//W3C//DTD SVG 1.1//EN" "http://www.w3.org/Graphics/SVG/1.1/DTD/svg11.dtd"><svg t="1729072457710" class="icon" viewBox="0 0 1024 1024" version="1.1" xmlns="http://www.w3.org/2000/svg" p-id="3429" xmlns:xlink="http://www.w3.org/1999/xlink" width="16" height="16"><path d="M512 977.6C233.28 977.6 6.4 800 6.4 584S233.28 192 512 192s505.6 176.64 505.6 393.6S790.72 977.6 512 977.6z m0-704c-232.96 0-422.4 139.2-422.4 310.4S279.04 896 512 896s422.4-139.2 422.4-310.4S744.96 273.6 512 273.6z" p-id="3430"></path><path d="M208 321.6a40.96 40.96 0 0 1-34.56-18.56l-64-96A41.6 41.6 0 0 1 178.56 160l64 96a41.28 41.28 0 0 1-11.52 57.6 40.64 40.64 0 0 1-23.04 8zM528 257.6a41.6 41.6 0 0 1-41.6-41.6v-128a41.6 41.6 0 0 1 83.2 0v128a41.6 41.6 0 0 1-41.6 41.6zM816 321.6a41.92 41.92 0 0 1-29.44-12.16 41.6 41.6 0 0 1 0-58.88l96-96a41.6 41.6 0 0 1 58.88 58.88l-96 96a41.92 41.92 0 0 1-29.44 12.16zM512 769.6a185.6 185.6 0 1 1 185.6-185.6 185.6 185.6 0 0 1-185.6 185.6z m0-288a102.4 102.4 0 1 0 102.4 102.4 102.72 102.72 0 0 0-102.4-102.4z" p-id="3431"></path></svg>