<?xml version="1.0" standalone="no"?><!DOCTYPE svg PUBLIC "-//W3C//DTD SVG 1.1//EN" "http://www.w3.org/Graphics/SVG/1.1/DTD/svg11.dtd"><svg t="1724899002202" class="icon" viewBox="0 0 1024 1024" version="1.1" xmlns="http://www.w3.org/2000/svg" p-id="13832" xmlns:xlink="http://www.w3.org/1999/xlink" width="64" height="64"><path d="M341.333333 625.777778m-312.888889 0a312.888889 312.888889 0 1 0 625.777778 0 312.888889 312.888889 0 1 0-625.777778 0Z" fill="#FED847" fill-opacity=".7" p-id="13833"></path><path d="M759.04 820.565333c-10.666667-48.924444-2.446222-101.831111 20.963556-148.764444l3.783111-7.623111 5.319111-6.656c36.124444-45.312 72.704-75.349333 121.344-87.608889 6.030222-41.244444 5.973333-79.473778-0.199111-120.775111-54.129778-14.791111-99.726222-50.460444-124.643556-100.465778-23.239111-46.620444-31.516444-99.128889-21.162667-147.768889a542.151111 542.151111 0 0 0-100.579555-58.026667c-38.4 37.432889-93.383111 58.652444-149.048889 58.652445-55.267556 0-104.903111-20.337778-149.390222-55.352889-39.139556 16.981333-71.964444 36.266667-100.750222 59.448889 10.922667 51.569778 3.328 100.522667-20.679112 148.679111l-3.783111 7.623111-5.319111 6.656c-35.384889 44.401778-71.907556 73.841778-121.173333 86.584889-6.087111 41.557333-6.172444 82.488889-0.398222 120.263111 56.746667 13.738667 104.846222 50.147556 130.673777 102.001778 23.239111 46.648889 31.516444 99.128889 21.191112 147.768889a542.435556 542.435556 0 0 0 101.489777 58.481778c41.927111-37.916444 92.302222-59.107556 148.138667-59.107556 49.976889 0 104.391111 20.963556 142.392889 53.617778 41.642667-17.976889 75.093333-36.693333 101.831111-57.628445zM655.36 967.111111c-16.867556 0-33.735111-5.632-44.999111-22.556444-22.471111-22.556444-61.838222-39.480889-95.573333-39.480889-39.367111 0-73.102222 16.924444-101.205334 45.112889-11.264 11.292444-28.131556 16.924444-39.367111 16.924444h-16.867555a631.239111 631.239111 0 0 1-157.44-90.254222c-16.867556-11.264-22.471111-33.848889-16.867556-56.405333 11.235556-33.848889 5.632-73.329778-11.235556-107.150223-16.867556-33.848889-50.631111-56.405333-89.969777-62.065777a61.127111 61.127111 0 0 1-44.970667-45.112889c-11.264-56.405333-11.264-118.442667 0-180.48 5.603556-22.584889 22.471111-39.480889 39.338667-45.141334 44.999111-5.632 73.102222-33.848889 95.573333-62.037333 16.896-33.848889 22.499556-67.697778 11.264-107.178667-5.632-22.556444 0-45.112889 16.867556-56.405333 44.970667-39.480889 95.573333-67.697778 151.808-90.225778 22.499556-11.292444 44.999111 0 61.866666 16.924445 28.103111 22.556444 61.838222 39.480889 101.205334 39.480889s78.705778-16.924444 101.205333-45.141334c16.867556-16.924444 39.367111-22.556444 56.234667-16.924444a631.239111 631.239111 0 0 1 157.44 90.254222c16.867556 11.292444 22.471111 33.848889 16.867555 56.405333-11.264 33.848889-5.632 73.329778 11.235556 107.178667s50.602667 56.405333 89.969777 62.008889c22.471111 5.688889 39.338667 22.584889 39.338667 45.141333a487.054222 487.054222 0 0 1 0 180.508445 61.127111 61.127111 0 0 1-44.942222 45.112889c-39.395556 5.632-67.498667 33.848889-89.998222 62.037333-16.867556 33.848889-22.471111 73.329778-11.235556 107.178667 5.632 22.556444 0 45.112889-16.867555 56.405333-44.970667 39.480889-101.205333 67.697778-157.44 90.254222 0 5.632-5.632 5.632-11.235556 5.632z" fill="#000000" p-id="13834"></path><path d="M512 625.777778c62.833778 0 113.777778-50.801778 113.777778-113.777778 0-30.378667-12.373333-60.814222-32.824889-81.180444C572.586667 410.453333 542.236444 398.222222 512 398.222222c-62.833778 0-113.777778 50.801778-113.777778 113.777778 0 30.378667 12.373333 60.814222 32.824889 81.180444C451.413333 613.546667 481.763556 625.777778 512 625.777778z m0 85.333333c-52.394667 0-104.789333-20.963556-141.482667-57.628444C333.824 616.789333 312.888889 564.394667 312.888889 512c0-110.023111 89.088-199.111111 199.111111-199.111111 52.394667 0 104.789333 20.963556 141.482667 57.628444C690.176 407.210667 711.111111 459.605333 711.111111 512c0 110.023111-89.088 199.111111-199.111111 199.111111z" fill="#000000" p-id="13835"></path></svg>