<?xml version="1.0" standalone="no"?><!DOCTYPE svg PUBLIC "-//W3C//DTD SVG 1.1//EN" "http://www.w3.org/Graphics/SVG/1.1/DTD/svg11.dtd"><svg t="1739938792173" class="icon" viewBox="0 0 1024 1024" version="1.1" xmlns="http://www.w3.org/2000/svg" p-id="123862" xmlns:xlink="http://www.w3.org/1999/xlink" width="48" height="48"><path d="M237.056 144.1792h314.9312a135.5776 135.5776 0 0 1 135.5776 135.5264v220.7744a135.5776 135.5776 0 0 1-135.5776 135.5264H323.3792l-117.504 96.4096a18.432 18.432 0 0 1-30.1056-14.2848v-96.768a135.4752 135.4752 0 0 1-74.2912-120.8832V279.7056A135.5776 135.5776 0 0 1 237.056 144.1792z" fill="#EF8F9F" p-id="123863"></path><path d="M516.7104 151.8592s80.2816 35.0208 80.2816 85.9136c51.456 0 92.16-4.5056 96.6656 0S658.6368 138.24 516.7104 151.8592z" fill="#E06C85" p-id="123864"></path><path d="M194.56 757.1456a39.168 39.168 0 0 1-39.0144-39.0144V633.344a155.2896 155.2896 0 0 1-74.5472-132.864V279.7056A156.2112 156.2112 0 0 1 237.056 123.6992h314.9312a156.2112 156.2112 0 0 1 156.0576 156.0064v220.7744a156.2112 156.2112 0 0 1-156.0576 156.0064H330.7008l-111.8208 91.7504a38.6048 38.6048 0 0 1-24.32 8.9088z m42.496-592.4864a115.2 115.2 0 0 0-115.0976 115.0464v220.7744a114.688 114.688 0 0 0 63.0784 102.4 20.48 20.48 0 0 1 11.2128 18.2272v92.4672l114.1248-93.6448a20.8384 20.8384 0 0 1 13.0048-4.6592h228.608a115.2 115.2 0 0 0 115.0976-115.0464V279.7056a115.2 115.2 0 0 0-115.0976-115.0464z" fill="#211D38" p-id="123865"></path><path d="M780.3904 240.64H440.32a146.3808 146.3808 0 0 0-146.432 146.5856v238.3872A146.3808 146.3808 0 0 0 440.32 771.9936h246.8864L814.08 876.0832a19.9168 19.9168 0 0 0 32.5632-15.36v-104.5504a146.3296 146.3296 0 0 0 80.0768-130.56V387.2256A146.3808 146.3808 0 0 0 780.3904 240.64z" fill="#F3556E" p-id="123866"></path><path d="M763.8016 253.0304s101.7856 35.072 101.7856 130.048v200.1408c0 52.48-8.3968 106.752-61.44 123.6992a30.0544 30.0544 0 0 0-21.1968 28.416V773.12l-70.4-54.8352a29.4912 29.4912 0 0 0-18.176-6.2464H442.3168c-44.1344 0-125.9008-16.5888-139.1104-79.5136 0.768 39.936 23.7568 143.616 144.384 143.616h253.2864l124.7744 104.7552 14.2848-2.6112 14.336-122.5216s73.1136-60.672 73.1136-138.7008v-261.12c0-33.3824-44.0832-119.0912-163.584-102.912z" fill="#D6283F" p-id="123867"></path><path d="M826.5728 901.12a40.0384 40.0384 0 0 1-25.6-9.216l-121.2416-99.4304H440.32a167.0656 167.0656 0 0 1-166.912-166.8608V387.2256A167.0656 167.0656 0 0 1 440.32 220.16h340.1216A167.0656 167.0656 0 0 1 947.2 387.2256v238.3872A166.0928 166.0928 0 0 1 867.072 768v92.672a40.5504 40.5504 0 0 1-40.4992 40.448zM440.32 261.12a126.0544 126.0544 0 0 0-125.952 126.1056v238.3872A126.0544 126.0544 0 0 0 440.32 751.5136h246.8864a20.48 20.48 0 0 1 13.0048 4.6592l125.952 103.3216v-103.3216a20.48 20.48 0 0 1 11.2128-18.2272A125.4912 125.4912 0 0 0 906.24 625.6128V387.2256A126.0544 126.0544 0 0 0 780.3904 261.12z" fill="#211D38" p-id="123868"></path><path d="M477.952 507.7504m-37.6832 0a37.6832 37.6832 0 1 0 75.3664 0 37.6832 37.6832 0 1 0-75.3664 0Z" fill="#FFFFFF" p-id="123869"></path><path d="M609.792 507.7504m-37.6832 0a37.6832 37.6832 0 1 0 75.3664 0 37.6832 37.6832 0 1 0-75.3664 0Z" fill="#FFFFFF" p-id="123870"></path><path d="M743.8336 507.7504m-37.6832 0a37.6832 37.6832 0 1 0 75.3664 0 37.6832 37.6832 0 1 0-75.3664 0Z" fill="#FFFFFF" p-id="123871"></path><path d="M328.0896 583.168a12.8 12.8 0 0 1-12.8-12.8V384a122.5728 122.5728 0 0 1 92.16-118.8352 12.8 12.8 0 1 1 6.3488 24.7808A97.28 97.28 0 0 0 340.8896 384v186.368a12.8 12.8 0 0 1-12.8 12.8zM481.28 286.976h-23.1424a12.8 12.8 0 0 1 0-25.6H481.28a12.8 12.8 0 0 1 0 25.6zM134.5536 481.28a12.8 12.8 0 0 1-12.8-12.8v-184.32a121.2416 121.2416 0 0 1 90.7264-117.76 12.8 12.8 0 1 1 6.4 24.7808 95.6928 95.6928 0 0 0-71.68 92.8256v184.32A12.7488 12.7488 0 0 1 134.5536 481.28zM285.2864 188.5696h-22.9376a12.8 12.8 0 1 1 0-25.6h22.9376a12.8 12.8 0 0 1 0 25.6z" fill="#FFFFFF" p-id="123872"></path><path d="M230.4 926.72a69.9392 69.9392 0 1 1 70.144-69.8368A70.0416 70.0416 0 0 1 230.4 926.72z m0-104.0384a34.0992 34.0992 0 1 0 34.0992 34.0992A34.1504 34.1504 0 0 0 230.4 822.784z" fill="#E2E5F1" p-id="123873"></path><path d="M830.3104 157.696m-34.6624 0a34.6624 34.6624 0 1 0 69.3248 0 34.6624 34.6624 0 1 0-69.3248 0Z" fill="#E2E5F1" p-id="123874"></path><path d="M725.2992 892.6208H629.248a15.36 15.36 0 0 1 0-30.72h96.0512a15.36 15.36 0 0 1 0 30.72z" fill="#E2E5F1" p-id="123875"></path><path d="M579.6352 878.3872m-17.3568 0a17.3568 17.3568 0 1 0 34.7136 0 17.3568 17.3568 0 1 0-34.7136 0Z" fill="#E2E5F1" p-id="123876"></path></svg>