<?xml version="1.0" standalone="no"?><!DOCTYPE svg PUBLIC "-//W3C//DTD SVG 1.1//EN" "http://www.w3.org/Graphics/SVG/1.1/DTD/svg11.dtd"><svg t="1739937652963" class="icon" viewBox="0 0 1024 1024" version="1.1" xmlns="http://www.w3.org/2000/svg" p-id="70253" id="mx_n_1739937652966" xmlns:xlink="http://www.w3.org/1999/xlink" width="48" height="48"><path d="M534.727246 623.813437c-37.490398 0-56.302544 28.117798-56.302544 70.361443q0 70.361443 56.302544 70.361442t56.302543-70.361442c-4.753247-42.243644-18.812146-65.675143-56.302543-70.361443z" fill="#FF3636" p-id="70254"></path><path d="M736.372027 187.585882a180.355591 180.355591 0 0 1-18.745199 187.451988c-79.734042-309.563569-281.177982-374.903976-281.177982-374.903976 23.431498 159.468084-84.420342 332.995067-192.339129 464.345353a360.376447 360.376447 0 0 0-42.243644-168.840683C192.493473 412.929951 108.140079 506.722892 79.888386 619.261032a294.56741 294.56741 0 0 0 65.675143 267.319924 519.64369 519.64369 0 0 0 698.86118 4.6863c272.073171-276.759471-42.243644-656.684482-107.85184-703.547479zM398.69066 806.71302h-51.616244v-89.106642h-93.725994v89.106642h-51.616243V586.32304h51.616243v89.106641h98.479241V586.32304h51.616244v220.456927z m136.036586 4.686299a108.387417 108.387417 0 0 1-112.53814-112.53814A109.659413 109.659413 0 0 1 534.727246 581.569793c70.361443 4.6863 103.165541 42.243644 107.85184 117.291386a102.228281 102.228281 0 0 1-107.918787 112.605088z m253.261025-182.899582v182.899582h-51.616244V628.499737H666.010585v-42.243645h192.272182v42.243645z" fill="#FF3636" p-id="70255"></path></svg>