<?xml version="1.0" standalone="no"?><!DOCTYPE svg PUBLIC "-//W3C//DTD SVG 1.1//EN" "http://www.w3.org/Graphics/SVG/1.1/DTD/svg11.dtd"><svg t="1735888950507" class="icon" viewBox="0 0 1024 1024" version="1.1" xmlns="http://www.w3.org/2000/svg" p-id="2425" id="mx_n_1735888950507" xmlns:xlink="http://www.w3.org/1999/xlink" width="16" height="16"><path d="M901.92 458.24A159.78 159.78 0 0 0 743.3 320H600.85a16 16 0 0 1-15.42-20.53c7.92-26.71 13.09-56.28 15.91-90.3a134.43 134.43 0 0 0-264.2-44.23C327.38 203 312 241.69 291.28 280A76.35 76.35 0 0 1 224 320c-88.22 0-160 71.78-160 160v192c0 123.71 100.29 224 224 224h313.12c46.51 0 92.13-13.8 130.23-40.46a223 223 0 0 0 81.33-104.89l80.43-214.47a160.23 160.23 0 0 0 8.81-77.94zM320 672a32 32 0 0 1-32 32 32 32 0 0 1-32-32V544a32 32 0 0 1 32-32 32 32 0 0 1 32 32z" p-id="2426"></path></svg>